# xmcd
#
# Track frame offsets:
#	150
#	11909
#	37266
#	40972
#	50000
#	54264
#	67514
#	72412
#	78132
#	97080
#	102026
#	106701
#	127042
#	139804
#
# Disc length: 1921 seconds
#
# Revision: 1
# Processed by: cddbd v1.5.1PL2 Copyright (c) Steve Scherf et al.
# Submitted via: EasyCDDAExtractor 9.0.0.1
#
DISCID=bc077f0e
DTITLE=Alice Cooper - Louisiana Forum Los Angeles 18-06-75 Disc 1
DYEAR=1975
DGENRE=Hard Rock
TTITLE0=KBFH and Pioneer Ads
TTITLE1=Intro and Welcome To My Nightmare
TTITLE2=Years Ago Intro
TTITLE3=No More Mr Nice Guy
TTITLE4=Years Ago Intro
TTITLE5=Billion Dollar Babies
TTITLE6=Pioneer Ads
TTITLE7=Years Ago Intro
TTITLE8=I'm Eighteen
TTITLE9=Stevens Intro
TTITLE10=Welcome To My Nightmare Reprise
TTITLE11=Some Folks
TTITLE12=Cold Ethyl
TTITLE13=Pioneer Ads
EXTD=
EXTT0=
EXTT1=
EXTT2=
EXTT3=
EXTT4=
EXTT5=
EXTT6=
EXTT7=
EXTT8=
EXTT9=
EXTT10=
EXTT11=
EXTT12=
EXTT13=
PLAYORDER=
